<mxfile host="app.diagrams.net" modified="2023-04-11T08:29:01.451Z" agent="5.0 (Windows NT 10.0; Win64; x64) AppleWebKit/537.36 (KHTML, like Gecko) Chrome/111.0.0.0 Safari/537.36" etag="5lSVrqD5n9IZuwWSqwTc" version="15.9.6" type="github">
  <diagram id="tG1p2r5PDoCthV3R4KHi" name="Page-1">
    <mxGraphModel dx="829" dy="621" grid="1" gridSize="10" guides="1" tooltips="1" connect="1" arrows="1" fold="1" page="1" pageScale="1" pageWidth="827" pageHeight="1169" math="0" shadow="0">
      <root>
        <mxCell id="0" />
        <mxCell id="1" parent="0" />
        <mxCell id="nahH-8Lz1Kb7uDSl6YcD-2" style="edgeStyle=orthogonalEdgeStyle;rounded=0;orthogonalLoop=1;jettySize=auto;html=1;exitX=0.5;exitY=1;exitDx=0;exitDy=0;" edge="1" parent="1" source="nahH-8Lz1Kb7uDSl6YcD-1">
          <mxGeometry relative="1" as="geometry">
            <mxPoint x="140" y="130" as="targetPoint" />
          </mxGeometry>
        </mxCell>
        <mxCell id="nahH-8Lz1Kb7uDSl6YcD-1" value="每24小时触发" style="rounded=1;whiteSpace=wrap;html=1;" vertex="1" parent="1">
          <mxGeometry x="80" y="50" width="120" height="40" as="geometry" />
        </mxCell>
        <mxCell id="nahH-8Lz1Kb7uDSl6YcD-4" style="edgeStyle=orthogonalEdgeStyle;rounded=0;orthogonalLoop=1;jettySize=auto;html=1;exitX=0.5;exitY=1;exitDx=0;exitDy=0;" edge="1" parent="1" source="nahH-8Lz1Kb7uDSl6YcD-3">
          <mxGeometry relative="1" as="geometry">
            <mxPoint x="140" y="250" as="targetPoint" />
          </mxGeometry>
        </mxCell>
        <mxCell id="nahH-8Lz1Kb7uDSl6YcD-20" style="edgeStyle=orthogonalEdgeStyle;rounded=0;orthogonalLoop=1;jettySize=auto;html=1;exitX=1;exitY=0.5;exitDx=0;exitDy=0;" edge="1" parent="1" source="nahH-8Lz1Kb7uDSl6YcD-3">
          <mxGeometry relative="1" as="geometry">
            <mxPoint x="290" y="170" as="targetPoint" />
          </mxGeometry>
        </mxCell>
        <mxCell id="nahH-8Lz1Kb7uDSl6YcD-3" value="license code是否有效" style="rhombus;whiteSpace=wrap;html=1;" vertex="1" parent="1">
          <mxGeometry x="50" y="130" width="180" height="80" as="geometry" />
        </mxCell>
        <mxCell id="nahH-8Lz1Kb7uDSl6YcD-5" value="是" style="text;html=1;strokeColor=none;fillColor=none;align=center;verticalAlign=middle;whiteSpace=wrap;rounded=0;" vertex="1" parent="1">
          <mxGeometry x="100" y="210" width="60" height="30" as="geometry" />
        </mxCell>
        <mxCell id="nahH-8Lz1Kb7uDSl6YcD-9" style="edgeStyle=orthogonalEdgeStyle;rounded=0;orthogonalLoop=1;jettySize=auto;html=1;exitX=0.5;exitY=1;exitDx=0;exitDy=0;" edge="1" parent="1" source="nahH-8Lz1Kb7uDSl6YcD-8">
          <mxGeometry relative="1" as="geometry">
            <mxPoint x="140" y="340" as="targetPoint" />
          </mxGeometry>
        </mxCell>
        <mxCell id="nahH-8Lz1Kb7uDSl6YcD-8" value="解码出MODE、SN_CODE和VALID_TIME" style="rounded=1;whiteSpace=wrap;html=1;" vertex="1" parent="1">
          <mxGeometry x="80" y="250" width="120" height="60" as="geometry" />
        </mxCell>
        <mxCell id="nahH-8Lz1Kb7uDSl6YcD-11" style="edgeStyle=orthogonalEdgeStyle;rounded=0;orthogonalLoop=1;jettySize=auto;html=1;exitX=0.5;exitY=1;exitDx=0;exitDy=0;" edge="1" parent="1" source="nahH-8Lz1Kb7uDSl6YcD-10">
          <mxGeometry relative="1" as="geometry">
            <mxPoint x="140" y="420" as="targetPoint" />
          </mxGeometry>
        </mxCell>
        <mxCell id="nahH-8Lz1Kb7uDSl6YcD-23" style="edgeStyle=orthogonalEdgeStyle;rounded=0;orthogonalLoop=1;jettySize=auto;html=1;exitX=0;exitY=0.5;exitDx=0;exitDy=0;entryX=0;entryY=0.5;entryDx=0;entryDy=0;" edge="1" parent="1" source="nahH-8Lz1Kb7uDSl6YcD-10" target="nahH-8Lz1Kb7uDSl6YcD-16">
          <mxGeometry relative="1" as="geometry">
            <Array as="points">
              <mxPoint x="60" y="365" />
              <mxPoint x="60" y="540" />
            </Array>
          </mxGeometry>
        </mxCell>
        <mxCell id="nahH-8Lz1Kb7uDSl6YcD-10" value="MODE==1" style="rhombus;whiteSpace=wrap;html=1;" vertex="1" parent="1">
          <mxGeometry x="100" y="340" width="80" height="50" as="geometry" />
        </mxCell>
        <mxCell id="nahH-8Lz1Kb7uDSl6YcD-12" value="是" style="text;html=1;strokeColor=none;fillColor=none;align=center;verticalAlign=middle;whiteSpace=wrap;rounded=0;" vertex="1" parent="1">
          <mxGeometry x="100" y="390" width="60" height="30" as="geometry" />
        </mxCell>
        <mxCell id="nahH-8Lz1Kb7uDSl6YcD-14" style="edgeStyle=orthogonalEdgeStyle;rounded=0;orthogonalLoop=1;jettySize=auto;html=1;exitX=0.5;exitY=1;exitDx=0;exitDy=0;" edge="1" parent="1" source="nahH-8Lz1Kb7uDSl6YcD-13">
          <mxGeometry relative="1" as="geometry">
            <mxPoint x="140" y="510" as="targetPoint" />
          </mxGeometry>
        </mxCell>
        <mxCell id="nahH-8Lz1Kb7uDSl6YcD-25" style="edgeStyle=orthogonalEdgeStyle;rounded=0;orthogonalLoop=1;jettySize=auto;html=1;exitX=1;exitY=0.5;exitDx=0;exitDy=0;entryX=0.5;entryY=1;entryDx=0;entryDy=0;" edge="1" parent="1" source="nahH-8Lz1Kb7uDSl6YcD-13" target="nahH-8Lz1Kb7uDSl6YcD-21">
          <mxGeometry relative="1" as="geometry" />
        </mxCell>
        <mxCell id="nahH-8Lz1Kb7uDSl6YcD-13" value="SN_CODE是否有效" style="rhombus;whiteSpace=wrap;html=1;" vertex="1" parent="1">
          <mxGeometry x="90" y="420" width="100" height="60" as="geometry" />
        </mxCell>
        <mxCell id="nahH-8Lz1Kb7uDSl6YcD-15" value="是" style="text;html=1;strokeColor=none;fillColor=none;align=center;verticalAlign=middle;whiteSpace=wrap;rounded=0;" vertex="1" parent="1">
          <mxGeometry x="100" y="480" width="60" height="30" as="geometry" />
        </mxCell>
        <mxCell id="nahH-8Lz1Kb7uDSl6YcD-17" style="edgeStyle=orthogonalEdgeStyle;rounded=0;orthogonalLoop=1;jettySize=auto;html=1;exitX=0.5;exitY=1;exitDx=0;exitDy=0;" edge="1" parent="1" source="nahH-8Lz1Kb7uDSl6YcD-16">
          <mxGeometry relative="1" as="geometry">
            <mxPoint x="140" y="610" as="targetPoint" />
          </mxGeometry>
        </mxCell>
        <mxCell id="nahH-8Lz1Kb7uDSl6YcD-27" style="edgeStyle=orthogonalEdgeStyle;rounded=0;orthogonalLoop=1;jettySize=auto;html=1;exitX=1;exitY=0.5;exitDx=0;exitDy=0;" edge="1" parent="1" source="nahH-8Lz1Kb7uDSl6YcD-16">
          <mxGeometry relative="1" as="geometry">
            <mxPoint x="360" y="450" as="targetPoint" />
          </mxGeometry>
        </mxCell>
        <mxCell id="nahH-8Lz1Kb7uDSl6YcD-16" value="VALID_TIME是否有效" style="rhombus;whiteSpace=wrap;html=1;" vertex="1" parent="1">
          <mxGeometry x="90" y="510" width="100" height="60" as="geometry" />
        </mxCell>
        <mxCell id="nahH-8Lz1Kb7uDSl6YcD-18" value="是" style="text;html=1;strokeColor=none;fillColor=none;align=center;verticalAlign=middle;whiteSpace=wrap;rounded=0;" vertex="1" parent="1">
          <mxGeometry x="100" y="570" width="60" height="30" as="geometry" />
        </mxCell>
        <mxCell id="nahH-8Lz1Kb7uDSl6YcD-39" style="edgeStyle=orthogonalEdgeStyle;rounded=0;orthogonalLoop=1;jettySize=auto;html=1;exitX=0;exitY=0.5;exitDx=0;exitDy=0;entryX=0;entryY=0.5;entryDx=0;entryDy=0;" edge="1" parent="1" source="nahH-8Lz1Kb7uDSl6YcD-19" target="nahH-8Lz1Kb7uDSl6YcD-1">
          <mxGeometry relative="1" as="geometry">
            <Array as="points">
              <mxPoint x="30" y="640" />
              <mxPoint x="30" y="70" />
            </Array>
          </mxGeometry>
        </mxCell>
        <mxCell id="nahH-8Lz1Kb7uDSl6YcD-19" value="uptime追加24小时并加密存盘" style="rounded=1;whiteSpace=wrap;html=1;" vertex="1" parent="1">
          <mxGeometry x="80" y="610" width="120" height="60" as="geometry" />
        </mxCell>
        <mxCell id="nahH-8Lz1Kb7uDSl6YcD-31" style="edgeStyle=orthogonalEdgeStyle;rounded=0;orthogonalLoop=1;jettySize=auto;html=1;exitX=1;exitY=0.5;exitDx=0;exitDy=0;entryX=0;entryY=0.5;entryDx=0;entryDy=0;" edge="1" parent="1" source="nahH-8Lz1Kb7uDSl6YcD-21" target="nahH-8Lz1Kb7uDSl6YcD-32">
          <mxGeometry relative="1" as="geometry">
            <mxPoint x="460" y="170" as="targetPoint" />
          </mxGeometry>
        </mxCell>
        <mxCell id="nahH-8Lz1Kb7uDSl6YcD-22" value="否" style="text;html=1;strokeColor=none;fillColor=none;align=center;verticalAlign=middle;whiteSpace=wrap;rounded=0;" vertex="1" parent="1">
          <mxGeometry x="230" y="140" width="60" height="30" as="geometry" />
        </mxCell>
        <mxCell id="nahH-8Lz1Kb7uDSl6YcD-24" value="否" style="text;html=1;strokeColor=none;fillColor=none;align=center;verticalAlign=middle;whiteSpace=wrap;rounded=0;" vertex="1" parent="1">
          <mxGeometry x="60" y="340" width="60" height="30" as="geometry" />
        </mxCell>
        <mxCell id="nahH-8Lz1Kb7uDSl6YcD-26" value="否" style="text;html=1;strokeColor=none;fillColor=none;align=center;verticalAlign=middle;whiteSpace=wrap;rounded=0;" vertex="1" parent="1">
          <mxGeometry x="190" y="420" width="60" height="30" as="geometry" />
        </mxCell>
        <mxCell id="nahH-8Lz1Kb7uDSl6YcD-28" value="否" style="text;html=1;strokeColor=none;fillColor=none;align=center;verticalAlign=middle;whiteSpace=wrap;rounded=0;" vertex="1" parent="1">
          <mxGeometry x="190" y="510" width="60" height="30" as="geometry" />
        </mxCell>
        <mxCell id="nahH-8Lz1Kb7uDSl6YcD-33" style="edgeStyle=orthogonalEdgeStyle;rounded=0;orthogonalLoop=1;jettySize=auto;html=1;exitX=0.5;exitY=1;exitDx=0;exitDy=0;" edge="1" parent="1" source="nahH-8Lz1Kb7uDSl6YcD-32">
          <mxGeometry relative="1" as="geometry">
            <mxPoint x="530" y="350" as="targetPoint" />
          </mxGeometry>
        </mxCell>
        <mxCell id="nahH-8Lz1Kb7uDSl6YcD-32" value="输入license code" style="rounded=1;whiteSpace=wrap;html=1;" vertex="1" parent="1">
          <mxGeometry x="470" y="250" width="120" height="60" as="geometry" />
        </mxCell>
        <mxCell id="nahH-8Lz1Kb7uDSl6YcD-37" style="edgeStyle=orthogonalEdgeStyle;rounded=0;orthogonalLoop=1;jettySize=auto;html=1;exitX=1;exitY=0.5;exitDx=0;exitDy=0;" edge="1" parent="1" source="nahH-8Lz1Kb7uDSl6YcD-34">
          <mxGeometry relative="1" as="geometry">
            <mxPoint x="140" y="110" as="targetPoint" />
            <Array as="points">
              <mxPoint x="630" y="390" />
              <mxPoint x="630" y="110" />
            </Array>
          </mxGeometry>
        </mxCell>
        <mxCell id="nahH-8Lz1Kb7uDSl6YcD-34" value="&lt;span lang=&quot;EN-US&quot; style=&quot;font-size: 10.5pt ; font-family: &amp;#34;calibri&amp;#34; , &amp;#34;sans-serif&amp;#34;&quot;&gt;expire_list中是否存在&lt;/span&gt;" style="rhombus;whiteSpace=wrap;html=1;" vertex="1" parent="1">
          <mxGeometry x="480" y="350" width="100" height="80" as="geometry" />
        </mxCell>
        <mxCell id="nahH-8Lz1Kb7uDSl6YcD-36" value="是" style="text;html=1;strokeColor=none;fillColor=none;align=center;verticalAlign=middle;whiteSpace=wrap;rounded=0;" vertex="1" parent="1">
          <mxGeometry x="430" y="360" width="60" height="30" as="geometry" />
        </mxCell>
        <mxCell id="nahH-8Lz1Kb7uDSl6YcD-38" value="否" style="text;html=1;strokeColor=none;fillColor=none;align=center;verticalAlign=middle;whiteSpace=wrap;rounded=0;" vertex="1" parent="1">
          <mxGeometry x="560" y="360" width="60" height="30" as="geometry" />
        </mxCell>
        <mxCell id="nahH-8Lz1Kb7uDSl6YcD-21" value="提示输入有效license code" style="rounded=1;whiteSpace=wrap;html=1;" vertex="1" parent="1">
          <mxGeometry x="300" y="250" width="120" height="60" as="geometry" />
        </mxCell>
        <mxCell id="nahH-8Lz1Kb7uDSl6YcD-40" value="" style="edgeStyle=orthogonalEdgeStyle;rounded=0;orthogonalLoop=1;jettySize=auto;html=1;exitX=0;exitY=0.5;exitDx=0;exitDy=0;endArrow=none;" edge="1" parent="1" source="nahH-8Lz1Kb7uDSl6YcD-34" target="nahH-8Lz1Kb7uDSl6YcD-21">
          <mxGeometry relative="1" as="geometry">
            <mxPoint x="360" y="280" as="targetPoint" />
            <mxPoint x="480" y="280" as="sourcePoint" />
          </mxGeometry>
        </mxCell>
        <mxCell id="nahH-8Lz1Kb7uDSl6YcD-42" style="edgeStyle=orthogonalEdgeStyle;rounded=0;orthogonalLoop=1;jettySize=auto;html=1;exitX=0.5;exitY=1;exitDx=0;exitDy=0;entryX=0.5;entryY=0;entryDx=0;entryDy=0;" edge="1" parent="1" source="nahH-8Lz1Kb7uDSl6YcD-41" target="nahH-8Lz1Kb7uDSl6YcD-21">
          <mxGeometry relative="1" as="geometry" />
        </mxCell>
        <mxCell id="nahH-8Lz1Kb7uDSl6YcD-41" value="uptime重置0" style="rounded=1;whiteSpace=wrap;html=1;" vertex="1" parent="1">
          <mxGeometry x="300" y="140" width="120" height="60" as="geometry" />
        </mxCell>
      </root>
    </mxGraphModel>
  </diagram>
</mxfile>
